# xmcd
#
# Track frame offsets: 
#        187
#        19982
#        39182
#        54340
#        68935
#        86402
#        100085
#        116417
#        129797
#        147955
#
# Disc length: 2139 seconds
#
# Revision: 3
# Processed by: cddbd v1.5.2PL0 Copyright (c) Steve Scherf et al.
# Submitted via: ExactAudioCopy v1.0b3
#
DISCID=7808590a
DTITLE=Restless Heart - Fast Movin' Train
DYEAR=1989
DGENRE=Country
TTITLE0=Fast Movin' Train
TTITLE1=Dancy's Dream
TTITLE2=Sweet Auburn
TTITLE3=I've Never Been So Sure
TTITLE4=Long Lost Friend
TTITLE5=A Little More Coal On The Fire
TTITLE6=When Somebody Loves You
TTITLE7=Lady Luck
TTITLE8=River Of Stone
TTITLE9=The Truth Hurts
EXTD=YEAR: 1989
EXTT0=
EXTT1=
EXTT2=
EXTT3=
EXTT4=
EXTT5=
EXTT6=
EXTT7=
EXTT8=
EXTT9=
PLAYORDER=
